SplineFontDB: 3.0
FontName: Jannon
FullName: Jannon
FamilyName: Jannon
Weight: Regular
Copyright: Created by trashman with FontForge 2.0 (http://fontforge.sf.net)
UComments: "2010-9-5: Created." 
Version: 001.000
ItalicAngle: 0
UnderlinePosition: -100
UnderlineWidth: 50
Ascent: 700
Descent: 300
LayerCount: 3
Layer: 0 0 "Back"  1
Layer: 1 0 "Fore"  0
Layer: 2 0 "backup"  0
NeedsXUIDChange: 1
XUID: [1021 658 797806517 9253483]
FSType: 0
OS2Version: 0
OS2_WeightWidthSlopeOnly: 0
OS2_UseTypoMetrics: 1
CreationTime: 1283672823
ModificationTime: 1284362216
OS2TypoAscent: 0
OS2TypoAOffset: 1
OS2TypoDescent: 0
OS2TypoDOffset: 1
OS2TypoLinegap: 90
OS2WinAscent: 0
OS2WinAOffset: 1
OS2WinDescent: 0
OS2WinDOffset: 1
HheadAscent: 0
HheadAOffset: 1
HheadDescent: 0
HheadDOffset: 1
MarkAttachClasses: 1
DEI: 91125
Encoding: UnicodeBmp
UnicodeInterp: none
NameList: Adobe Glyph List
DisplaySize: -48
AntiAlias: 1
FitToEm: 1
WinInfo: 64 16 4
BeginPrivate: 8
BlueValues 15 [-25 0 390 426]
StdHW 4 [29]
StdVW 4 [73]
StemSnapH 22 [24 29 37 43 49 53 65]
StemSnapV 16 [69 73 83 89 93]
BlueFuzz 1 0
BlueScale 6 0.0275
BlueShift 1 7
EndPrivate
BeginChars: 65536 55

StartChar: a
Encoding: 97 97 0
Width: 426
VWidth: 0
Flags: W
HStem: -16 58<80.5 172.727> -8 57<282 373.306> 370 43<154.812 269.5>
VStem: 30 78<20 109.921> 248 69<79.4742 190.674> 254 71<222.592 358.867>
LayerCount: 3
Fore
SplineSet
196 370 m 0xb4
 128 370 130 265 79 265 c 0
 60 265 49 279 49 294 c 0
 49 359 182 413 245 413 c 0
 294 413 325 390 325 328 c 0xb4
 325 275 317 166 317 98 c 0
 317 60 326 49 345 49 c 0
 380 49 388 87 404 87 c 0
 408 87 415 84 415 76 c 0
 415 54 376 -8 312 -8 c 0x78
 252 -8 247 61 241 61 c 0
 234 61 182 -16 95 -16 c 0
 66 -16 30 -2 30 42 c 0
 30 143 151 199 231 220 c 0
 244 223 251 224 252 243 c 0
 253 262 254 280 254 299 c 0
 254 347 238 370 196 370 c 0xb4
248 145 m 2xb8
 248 170 l 2
 248 183 247 193 240 193 c 0
 203 193 108 147 108 81 c 0
 108 59 122 42 144 42 c 0
 174 42 201 53 217 69 c 0
 240 91 248 115 248 145 c 2xb8
EndSplineSet
Validated: 1
EndChar

StartChar: b
Encoding: 98 98 1
Width: 494
VWidth: 0
Flags: W
HStem: -12 37<188.966 323.218> 357 55<195.375 305.956>
VStem: 82 68<58.3835 349.548 375 601.54> 390 74<113.196 270.811>
LayerCount: 3
Fore
SplineSet
150 375 m 2
 150 370 148 360 160 368 c 0
 181 381 217 412 274 412 c 0
 397 412 464 321 464 200 c 0
 464 84 350 -12 244 -12 c 0
 204 -12 170 3 141 3 c 0
 103 3 115 -46 98 -46 c 0
 84 -46 80 -42 80 -25 c 0
 80 -13 82 21 82 67 c 0
 82 103 79 403 77 572 c 0
 76 619 19 600 19 625 c 0
 19 636 28 642 41 645 c 0
 95 658 119 678 133 678 c 0
 146 678 150 667 150 644 c 2
 150 375 l 2
261 25 m 0
 322 25 390 72 390 187 c 0
 390 282 318 357 226 357 c 0
 201 357 150 354 150 325 c 2
 150 120 l 2
 150 44 213 25 261 25 c 0
EndSplineSet
Validated: 1
EndChar

StartChar: c
Encoding: 99 99 2
Width: 411
VWidth: 0
Flags: W
HStem: -29 63<176.765 305.88> 379 44<168.056 285.334>
VStem: 32 72<114.339 287.383>
LayerCount: 3
Fore
SplineSet
222 -29 m 0
 124 -29 32 44 32 178 c 0
 32 308 117 423 257 423 c 0
 311 423 370 408 370 356 c 0
 370 339 351 328 341 328 c 0
 300 328 280 379 239 379 c 0
 143 379 104 292 104 205 c 0
 104 106 170 34 247 34 c 0
 293 34 328 52 345 68 c 0
 360 82 365 91 375 91 c 0
 379 91 384 87 384 82 c 0
 384 38 305 -29 222 -29 c 0
EndSplineSet
Validated: 1
EndChar

StartChar: d
Encoding: 100 100 3
Width: 493
VWidth: 0
Flags: W
LayerCount: 3
Fore
SplineSet
466 22 m 0
 466 15 460 11 458 10 c 0
 383 -9 340 -29 336 -29 c 0
 326 -29 324 -14 323 17 c 0
 323 21 320 19 313 16 c 0
 282 1 243 -13 211 -13 c 0
 84 -13 24 74 24 188 c 0
 24 298 100 400 236 400 c 0
 260 400 289 392 305 387 c 0
 317 383 316 386 316 401 c 2
 313 618 l 2
 313 626 306 639 294 640 c 2
 263 645 l 2
 251 647 244 654 244 662 c 0
 244 673 252 678 264 679 c 0
 298 682 375 688 378 688 c 0
 385 688 393 682 393 675 c 0
 393 639 387 419 387 286 c 0
 387 200 387 120 390 44 c 0
 390 33 397 29 406 29 c 0
 422 29 443 38 452 38 c 0
 460 38 466 32 466 22 c 0
258 40 m 0
 318 40 319 52 322 96 c 0
 323 110 323 124 323 138 c 0
 323 186 321 245 317 288 c 0
 312 347 269 370 227 370 c 0
 144 370 91 303 91 206 c 0
 91 98 176 40 258 40 c 0
EndSplineSet
Validated: 1
EndChar

StartChar: e
Encoding: 101 101 4
Width: 424
VWidth: 0
Flags: W
HStem: -23 67<161.909 292.091> 231 29<101.441 267.082> 239 33<146.75 291.531> 384 29<173.407 267.409>
VStem: 27 63<119.338 258.929> 306 82<257 323.691>
LayerCount: 3
Back
SplineSet
199 -23 m 4xdc
 106.842536577 -23 27 63.9093601939 27 175 c 4
 27 292 89 413 227 413 c 4
 309 413 361 347 380 295 c 4
 384 284 388 273 388 264 c 4
 388 250 380 240 362 239 c 6xbc
 116 231 l 6
 98 230 90 232 90 214 c 4
 90 119 139 44 247 44 c 4
 314 44 337 87 359 87 c 4
 365 87 370 84 370 77 c 4
 370 44 296 -23 199 -23 c 4xdc
215 384 m 4
 159 384 101 297 101 267 c 4
 101 260 103 260 114 260 c 4xdc
 129 260 213 268 251 272 c 4
 272 274 281 278 292 289 c 5
 301 300 306 305 306 313 c 4
 306 318 306 324 302 332 c 4
 291 356 263 384 215 384 c 4
EndSplineSet
Fore
SplineSet
199 -23 m 0xdc
 107 -23 27 64 27 175 c 0
 27 292 89 413 227 413 c 0
 309 413 361 347 380 295 c 0
 384 284 388 273 388 264 c 0
 388 250 380 240 362 239 c 2xbc
 116 231 l 2
 98 230 90 232 90 214 c 0
 90 119 139 44 247 44 c 0
 314 44 337 87 359 87 c 0
 365 87 370 84 370 77 c 0
 370 44 296 -23 199 -23 c 0xdc
215 384 m 0
 159 384 101 297 101 267 c 0
 101 260 103 260 114 260 c 0xdc
 129 260 213 268 251 272 c 0
 272 274 282 278 292 289 c 0
 301 300 306 305 306 313 c 0
 306 318 306 324 302 332 c 0
 291 356 263 384 215 384 c 0
EndSplineSet
Validated: 1
EndChar

StartChar: f
Encoding: 102 102 5
Width: 326
VWidth: 0
Flags: W
LayerCount: 3
Fore
SplineSet
311 692 m 0
 337 692 374 688 374 666 c 0
 374 643 356 620 333 620 c 0
 309 620 300 643 271 643 c 0
 223 643 195 562 195 406 c 0
 195 396 197 394 206 394 c 0
 231 395 274 398 293 399 c 0
 301 399 307 396 307 381 c 2
 307 372 l 2
 307 362 301 357 288 356 c 0
 274 355 238 353 214 351 c 0
 196 349 196 348 196 337 c 2
 194 73 l 2
 194 35 213 32 251 31 c 0
 268 31 283 29 283 16 c 0
 283 4 277 -4 266 -4 c 0
 209 -4 215 0 157 0 c 0
 119 0 76 -3 52 -3 c 0
 38 -3 33 3 33 14 c 0
 33 23 40 27 53 28 c 0
 102 30 120 33 120 67 c 2
 121 324 l 2
 121 339 120 341 111 340 c 0
 88 337 75 333 67 333 c 0
 56 333 53 338 53 344 c 0
 53 364 82 371 109 377 c 0
 125 380 126 383 126 391 c 0
 131 502 146 597 226 664 c 0
 248 683 285 692 311 692 c 0
EndSplineSet
Validated: 1
Layer: 2
SplineSet
192 68 m 6xd8
 192 40 202 32 230 31 c 6
 251 30 l 6
 268 30 283 29 283 16 c 4
 283 4 278 -3 267 -3 c 4
 244 -3 215 0 157 0 c 4
 119 0 76 -3 52 -3 c 4
 35 -3 33 3 33 14 c 4
 33 23 40 26 53 27 c 4
 102 29 123 24 123 58 c 6
 125 324 l 6
 125 339 127 343 112 341 c 4
 91 339 75 333 67 333 c 4
 59 333 55 340 55 350 c 4
 55 359 88 368 110 373 c 4
 126 376 128 379 128 387 c 6
 128 398 l 6xb8
 128 499 153 589 203 645 c 4
 226 671 252 693 300 693 c 4
 321 693 372 689 372 664 c 4
 372 653 352 623 331 623 c 4
 307 623 296 652 267 652 c 4
 234 652 215 592 208 558 c 4
 200 518 194 469 194 415 c 6
 194 405 l 6
 194 395 195 391 204 391 c 4xd8
 229 392 274 397 293 398 c 4
 301 398 305 398 305 383 c 6
 305 374 l 6
 305 364 301 359 288 358 c 4xb8
 274 357 238 354 214 352 c 4
 196 350 194 350 194 339 c 6
 192 68 l 6xd8
EndSplineSet
EndChar

StartChar: g
Encoding: 103 103 6
Width: 461
VWidth: 0
Flags: W
HStem: -266 34<99.3672 255.838> -34 65<108.06 329.104> 116 26<168.018 248.5> 330 60<353.696 432.577> 383 28<160.239 248.386>
VStem: -7 59<-197.502 -97.5711> 33 66<39.8156 96.937> 55 72<178.327 341.4> 289 68<190.108 329.708> 358 56<-155.482 -59.901>
LayerCount: 3
Fore
SplineSet
207 142 m 0xe9c0
 266 142 289 200 289 264 c 0
 289 350 248 383 206 383 c 0
 152 383 127 345 127 270 c 0
 127 192 157 142 207 142 c 0xe9c0
358 -102 m 0
 358 -89 349 -34 244 -34 c 0
 212 -34 180 -34 146 -38 c 0
 114 -42 52 -89 52 -148 c 0xe4c0
 52 -216 134 -232 182 -232 c 0
 255 -232 358 -184 358 -102 c 0
156 -266 m 0
 83 -266 -7 -244 -7 -164 c 0xf4c0
 -7 -63 112 -35 112 -28 c 0
 112 -25 77 -3 56 25 c 0
 44 41 33 59 33 78 c 0xf2c0
 33 90 38 95 60 102 c 0
 81 109 124 124 124 127 c 0
 124 130 109 141 105 145 c 0
 74 175 55 201 55 266 c 0
 55 341 114 411 210 411 c 0xe9c0
 268 411 293 390 312 390 c 2
 407 390 l 2
 431 390 433 372 433 361 c 0
 433 342 431 330 414 330 c 2
 358 330 l 2
 349 330 350 325 352 316 c 0
 355 304 357 289 357 273 c 0
 357 217 334 176 297 143 c 0
 275 124 227 116 185 116 c 2
 148 116 l 2
 138 116 99 79 99 66 c 0xf2c0
 99 47 140 25 166 25 c 0
 205 25 226 31 283 31 c 0
 358 31 414 -2 414 -85 c 0
 414 -202 260 -266 156 -266 c 0
EndSplineSet
Validated: 1
EndChar

StartChar: h
Encoding: 104 104 7
Width: 519
VWidth: 0
Flags: W
HStem: -3 31<13.2131 79.8774 155.092 225.965 282.14 345.719 423.267 502.935> 370 49<219.057 330.333> 602 32<27.1152 84.23>
VStem: 82 73<31 338.082> 87 72<357.004 601.712> 349 73<30.0112 275.561> 357 72<56.3592 342.933>
LayerCount: 3
Fore
SplineSet
197 384 m 0xe8
 226 404 262 419 304 419 c 0
 405 419 429 364 429 278 c 0xea
 429 227 422 109 422 58 c 0
 422 27 430 28 479 27 c 0
 494 27 503 24 503 11 c 0
 503 -2 493 -5 485 -5 c 0
 474 -5 393 0 385 0 c 0
 360 0 325 -4 305 -4 c 0
 287 -4 282 0 282 10 c 0
 282 20 287 26 307 28 c 0
 342 31 347 30 349 67 c 0xe4
 353 132 357 225 357 290 c 0
 357 329 327 370 268 370 c 0
 223 370 186 347 168 331 c 0
 156 320 155 315 155 300 c 2
 155 223 l 2
 155 187 153 143 153 58 c 0
 153 34 162 34 190 28 c 0
 212 24 226 23 226 12 c 0
 226 -3 214 -3 198 -3 c 0
 188 -3 148 0 120 0 c 0
 83 0 39 -2 35 -2 c 0
 25 -2 13 -1 13 10 c 0
 13 26 30 24 46 25 c 0
 60 26 82 30 82 55 c 0xf2
 84 203 87 442 87 575 c 0
 87 599 72 602 59 602 c 2
 49 602 l 2
 37 602 27 604 27 616 c 0
 27 628 35 630 46 634 c 0
 82 646 141 668 149 668 c 0
 160 668 165 659 165 653 c 0
 165 645 159 490 159 406 c 2
 159 371 l 2
 159 362 159 357 160 357 c 0
 163 357 175 369 197 384 c 0xe8
EndSplineSet
Validated: 1
EndChar

StartChar: i
Encoding: 105 105 8
Width: 287
VWidth: 0
Flags: W
HStem: -2 31<35.5078 105.602 189.59 260.928> 340 33<59.008 108.377> 578 86<123.642 198.358>
VStem: 112 72<32.5479 324.256> 116 78<173.429 335.172> 118 86<583.642 658.358>
LayerCount: 3
Fore
SplineSet
118 621 m 0xe4
 118 645 137 664 161 664 c 0
 185 664 204 645 204 621 c 0
 204 597 185 578 161 578 c 0
 137 578 118 597 118 621 c 0xe4
181 438 m 0
 189 438 194 426 194 418 c 0xe8
 194 410 184 142 184 87 c 0
 184 31 193 30 245 30 c 0
 258 30 261 20 261 15 c 0
 261 5 255 -1 237 -1 c 0
 224 -1 177 0 152 0 c 0
 117 0 85 -2 61 -2 c 0
 48 -2 35 -1 35 9 c 0
 35 23 46 29 64 29 c 0
 99 29 111 34 112 83 c 0xf0
 113 156 116 228 116 301 c 0xe8
 116 322 102 336 79 340 c 0
 70 342 59 345 59 356 c 0
 59 364 61 370 78 373 c 0
 122 381 134 398 152 417 c 0
 162 427 171 438 181 438 c 0
EndSplineSet
Validated: 1
EndChar

StartChar: j
Encoding: 106 106 9
Width: 284
VWidth: 0
Flags: W
HStem: 564 86<79.6424 154.358>
VStem: 74 86<569.642 644.358> 122 75<-97.5249 420>
LayerCount: 3
Fore
SplineSet
74 607 m 0xc0
 74 631 93 650 117 650 c 0
 141 650 160 631 160 607 c 0
 160 583 141 564 117 564 c 0
 93 564 74 583 74 607 c 0xc0
179 442 m 0
 191 442 197 428 197 420 c 0
 197 296 193 50 191 -10 c 0
 187 -153 93 -237 61 -237 c 0
 55 -237 48 -229 48 -224 c 0
 48 -191 120 -196 120 -23 c 0
 120 54 122 227 122 304 c 0xa0
 122 343 113 347 93 352 c 0
 80 355 66 357 66 370 c 0
 66 376 72 384 81 387 c 0
 107 397 129 407 145 421 c 0
 155 429 170 442 179 442 c 0
EndSplineSet
Validated: 1
EndChar

StartChar: k
Encoding: 107 107 10
Width: 530
VWidth: 0
Flags: W
LayerCount: 3
Fore
SplineSet
102 579 m 0xa8
 102 607 94 611 86 613 c 0
 66 617 45 615 45 632 c 0
 45 638 50 643 57 645 c 0
 92 654 156 676 167 676 c 0
 176 676 184 667 184 657 c 2
 169 219 l 2
 169 214 170 206 178 212 c 0
 228 248 273 286 324 330 c 0
 332 337 342 347 342 354 c 0
 342 366 328 367 313 368 c 0
 304 369 298 372 298 381 c 0
 298 388 304 395 310 395 c 0xc8
 368 398 470 407 483 407 c 0
 496 407 502 401 502 390 c 0
 502 377 491 372 479 370 c 0
 425 363 413 353 391 337 c 2
 260 238 l 2
 257 236 246 227 255 218 c 2
 368 103 l 2
 402 69 429 36 474 32 c 0
 495 30 513 28 513 15 c 0
 513 2 503 0 491 0 c 0
 456 0 427 1 388 1 c 0
 345 1 322 -1 281 -1 c 0
 271 -1 265 5 265 14 c 0
 265 24 275 28 281 29 c 0
 299 31 316 29 316 45 c 0
 316 48 312 55 309 58 c 0
 263 110 213 159 192 179 c 0
 184 187 182 189 173 183 c 0
 168 180 168 176 168 165 c 2
 170 71 l 2
 171 12 224 40 224 14 c 0
 224 2 213 -1 202 -1 c 0
 179 -1 185 1 127 1 c 0
 89 1 70 -1 46 -1 c 0
 29 -1 28 7 28 15 c 0
 28 26 40 27 50 27 c 0
 83 27 96 35 97 67 c 0xb0
 99 166 100 423 102 579 c 0xa8
EndSplineSet
Validated: 1
EndChar

StartChar: l
Encoding: 108 108 11
Width: 326
VWidth: 0
Flags: W
HStem: -4 36<43.2252 123.052 210.331 281.929>
VStem: 132 76<35.5759 609.516>
LayerCount: 3
Fore
SplineSet
131 576 m 2
 131 604 125 605 117 607 c 2
 98 614 l 2
 89 617 76 619 76 633 c 0
 76 644 87 650 95 652 c 0
 132 662 186 678 202 678 c 0
 211 678 214 664 214 654 c 0
 212 458 208 263 208 67 c 0
 208 32 221 36 261 32 c 0
 280 30 282 21 282 12 c 0
 282 0 271 -4 260 -4 c 0
 237 -4 232 0 174 0 c 0
 149 0 110 -8 62 -8 c 0
 45 -8 43 1 43 12 c 0
 43 28 78 27 94 29 c 0
 130 34 132 69 132 112 c 0
 132 183 131 253 131 395 c 2
 131 576 l 2
EndSplineSet
Validated: 1
EndChar

StartChar: m
Encoding: 109 109 12
Width: 776
VWidth: 0
Flags: W
HStem: 0 24<36.3098 101.734 189.948 255.815 299.007 350.389 441.727 501.819 537.458 596.26 690.861 748.782> 375 49<247.203 344.89 483.034 587.245>
VStem: 111 73<28.8819 338.986> 363 73<30.4536 351.168> 613 73<31.6704 349.395>
LayerCount: 3
Fore
SplineSet
332 424 m 0
 377 424 411 406 424 373 c 0
 428 363 428 364 435 370 c 0
 459 390 504 422 556 422 c 0
 654 422 686 370 686 279 c 0
 686 204 682 140 682 63 c 0
 682 36 695 30 710 28 c 0
 730 25 749 24 749 10 c 0
 749 -3 733 -4 727 -4 c 0
 724 -4 679 0 646 0 c 0
 613 0 600 -3 567 -3 c 0
 554 -3 537 -2 537 8 c 0
 537 17 542 23 555 24 c 0
 594 26 606 32 609 82 c 0
 612 128 613 173 613 219 c 0
 613 242 613 265 612 288 c 0
 611 330 590 376 534 376 c 0
 484 376 436 345 436 321 c 2
 436 191 l 2
 436 146 433 101 433 58 c 0
 433 32 453 29 467 27 c 0
 487 24 502 24 502 10 c 0
 502 0 486 -2 480 -2 c 0
 469 -2 424 0 393 0 c 0
 361 0 351 -1 319 -2 c 0
 306 -2 299 2 299 12 c 0
 299 24 309 24 322 26 c 0
 359 31 360 43 362 78 c 0
 363 98 363 118 363 138 c 0
 363 188 361 240 361 290 c 0
 361 315 359 375 296 375 c 0
 235 375 191 348 188 290 c 0
 184 215 184 144 184 69 c 0
 184 28 195 28 218 26 c 0
 240 24 256 23 256 10 c 0
 256 0 248 -2 225 -2 c 0
 193 -1 180 0 148 0 c 0
 115 0 61 -3 58 -3 c 0
 48 -3 36 -2 36 9 c 0
 36 21 48 23 64 24 c 0
 78 25 110 29 111 54 c 0
 114 114 115 190 115 259 c 0
 115 284 115 307 114 329 c 0
 112 379 51 350 51 377 c 0
 51 389 65 391 91 395 c 0
 118 399 141 412 162 440 c 0
 168 448 176 454 184 454 c 0
 190 454 193 449 193 438 c 0
 193 430 190 407 190 387 c 0
 190 375 192 371 196 371 c 0
 200 371 205 375 210 380 c 0
 231 398 286 424 332 424 c 0
EndSplineSet
Validated: 1
EndChar

StartChar: n
Encoding: 110 110 13
Width: 506
VWidth: 0
Flags: W
LayerCount: 3
Fore
SplineSet
302 28 m 0
 346.057148337 30.2028574168 352 35.85585461 352 83 c 0
 352 145 353 207 353 269 c 0
 353 327 350 368 269 368 c 0
 224 368 186 356 167 338 c 0
 154 326 157 309 156 292 c 0
 153 213 153 135 153 56 c 0
 153 30 167 32 190 28 c 0
 212 24 234 25 234 12 c 0
 234 3 234 -2 214 -2 c 0
 184 -2 196 0 120 0 c 0
 83 0 45 -2 41 -2 c 0
 31 -2 25 0 25 11 c 0
 25 22 39 25 55 27 c 0
 68.9272836824 28.7409104603 81 30 81 55 c 0
 82 137 83 215 83 297 c 0
 83 343 36 318 36 343 c 0
 36 356 45 354 63 361 c 0
 93 372 105 389 123 414 c 0
 130 423 132 430 144 430 c 0
 150 430 156 425 156 416 c 0
 156 408 154 391 154 374 c 0
 154 365.081839637 155.391837725 361.731030172 158.086851516 361.731030172 c 0
 161.435716018 361.731030172 166.796804236 366.9049882 174 373 c 0
 204 399 241 421 292 421 c 0
 361 421 426 401 426 318 c 0
 426 232 421 146 421 60 c 0
 421 33 425 34 440 32 c 0
 459.216292934 29.1175560598 481.110918318 31.6944846412 481.110918318 13.3505675372 c 0
 481.110918318 0.611798349472 469.017085798 -2 462 -2 c 0
 418 -2 400 0 385 0 c 0
 352 0 317 -3 297 -3 c 0
 284 -3 279 0 279 10 c 0
 279 25 289 27 302 28 c 0
EndSplineSet
Validated: 1
EndChar

StartChar: o
Encoding: 111 111 14
Width: 510
VWidth: 0
Flags: W
HStem: -25 33<194.669 311.856> 395 31<189.774 301.644>
VStem: 36 77<104.071 302.44> 389 85<100.984 304.857>
LayerCount: 3
Fore
SplineSet
474 203 m 0
 474 59 368 -25 245 -25 c 0
 134 -25 36 48 36 193 c 0
 36 328 117 426 256 426 c 0
 386 426 474 351 474 203 c 0
113 228 m 0
 113 107 163 8 250 8 c 0
 362 8 389 124 389 194 c 0
 389 328 316 395 245 395 c 0
 156 395 113 302 113 228 c 0
EndSplineSet
Validated: 1
EndChar

StartChar: p
Encoding: 112 112 15
Width: 526
VWidth: 0
Flags: W
LayerCount: 3
Fore
SplineSet
313 423 m 0xda
 413 423 503 357 503 219 c 0
 503 90 432 -4 292 -4 c 0
 242 -4 203 11 188 18 c 0
 177 23 178 19 178 14 c 2
 179 -188 l 2
 179 -232 193 -233 246 -234 c 0
 264 -234 275 -236 275 -252 c 0
 275 -266 268 -269 247 -269 c 0
 226 -269 178 -264 148 -264 c 0
 124 -264 58 -270 49 -270 c 0
 23 -270 23 -264 23 -255 c 0
 23 -244 33 -239 46 -238 c 0
 106 -234 106 -212 106 -158 c 0
 106 -66 100 300 100 328 c 0xda
 100 357 77 364 48 364 c 0
 37 364 27 367 27 377 c 0
 27 392 39 395 54 397 c 0
 96 402 134 416 146 452 c 0
 150 463 158 474 169 474 c 0
 176 474 184 467 184 448 c 0xe6
 184 436 176 423 176 383 c 0
 176 376 178 373 181 373 c 0
 186 373 194 381 199 385 c 0
 235 413 274 423 313 423 c 0xda
283 28 m 0
 377 28 437 82 437 172 c 0
 437 282 363 366 265 366 c 0
 178 366 176 340 176 275 c 2
 176 149 l 2
 176 107 182 79 194 61 c 0
 210 38 247 28 283 28 c 0
EndSplineSet
Validated: 1
EndChar

StartChar: q
Encoding: 113 113 16
Width: 475
VWidth: 0
Flags: W
LayerCount: 3
Fore
SplineSet
406 -195 m 2xdc
 406 -223 424 -224 456 -224 c 0
 478 -224 498 -227 498 -244 c 0
 498 -258 496 -260 475 -260 c 0
 454 -260 401 -256 371 -256 c 0
 347 -256 294 -259 285 -259 c 0
 259 -259 258 -251 258 -242 c 0
 258 -236 263 -226 276 -225 c 0
 314 -222 331 -232 331 -193 c 2
 332 19 l 2
 332 28 314 20 307 16 c 0
 284 5 247 -11 214 -11 c 0
 96 -11 15 83 15 188 c 0
 15 320 109 409 239 409 c 0
 314 409 340 373 367 373 c 0xec
 384 373 376 421 404 421 c 0
 412 421 418 412 418 405 c 0
 416 358 406 302 406 183 c 2
 406 -195 l 2xdc
279 43 m 0
 315 43 333 46 333 87 c 2
 333 270 l 2
 333 332 284 373 229 373 c 0
 161 373 88 314 88 213 c 0
 88 98 169 43 279 43 c 0
EndSplineSet
Validated: 1
EndChar

StartChar: r
Encoding: 114 114 17
Width: 371
VWidth: 0
Flags: W
LayerCount: 3
Fore
SplineSet
160 441 m 0
 172 441 175 432 175 425 c 0
 175 421 167 374 167 368 c 0
 167 356 167 354 172 354 c 0
 184 354 236 419 303 419 c 0
 330 419 362 402 362 370 c 0
 362 325 325 319 312 319 c 0
 284 319 258 348 242 348 c 0
 222 348 204 335 191 324 c 0
 174 310 174 299 174 288 c 0
 173 253 173 213 173 173 c 2
 173 59 l 2
 173 35 195 37 239 33 c 0
 257 31 267 27 267 13 c 0
 267 3 261 -6 243 -6 c 0
 230 -6 173 0 148 0 c 0
 117 0 74 -6 54 -6 c 0
 40 -6 32 0 32 8 c 0
 32 25 48 28 68 29 c 0
 100 31 100 40 100 85 c 2
 102 309 l 2
 102 324 76 329 57 332 c 0
 48 334 40 334 40 345 c 0
 40 357 43 360 60 366 c 0
 107 382 115 398 145 432 c 0
 149 437 156 441 160 441 c 0
EndSplineSet
Validated: 1
EndChar

StartChar: s
Encoding: 115 115 18
Width: 351
VWidth: 0
Flags: W
HStem: -17 36<119.748 224.89> 384 31<121.704 222.132>
VStem: 46 58<286.852 369.377> 48 27<78.3238 124.974> 253 66<45.5244 127.972>
LayerCount: 3
Fore
SplineSet
46 305 m 0xe8
 46 358 84 415 182 415 c 0
 212 415 251 407 270 397 c 0
 286 389 290 376 290 364 c 2
 290 320 l 2
 290 309 287 303 278 303 c 0
 266 303 257 325 254 330 c 0
 236 365 211 384 168 384 c 0
 130 384 104 365 104 329 c 0xe8
 104 239 319 230 319 112 c 0
 319 47 260 -17 161 -17 c 0
 119 -17 92 -8 72 -1 c 0
 50 7 47 18 47 30 c 0
 47 48 48 65 48 85 c 0
 48 104 49 125 62 125 c 0
 68 125 73 116 75 111 c 0xd8
 94 52 121 19 176 19 c 0
 221 19 253 54 253 88 c 0
 253 171 46 179 46 305 c 0xe8
EndSplineSet
Validated: 1
EndChar

StartChar: t
Encoding: 116 116 19
Width: 352
VWidth: 0
Flags: W
HStem: -19 53<179.394 274.366> 345 50<175.199 318.318>
VStem: 91 76<45.9304 317.166> 102 68<99.4954 340.916>
LayerCount: 3
Fore
SplineSet
286 344 m 0xd0
 256 344 216 345 183 345 c 0
 170 345 170 344 170 333 c 0xd0
 169 264 167 186 167 120 c 0
 167 62 179 34 225 34 c 0
 266 34 298 69 309 69 c 0
 315 69 320 65 320 59 c 0
 320 20 256 -19 187 -19 c 0
 111 -19 91 32 91 96 c 0xe0
 91 170 102 281 102 319 c 0
 102 337 97 341 82 341 c 0
 76 341 68 340 60 340 c 0
 51 340 43 342 43 350 c 0
 43 359 48 367 58 372 c 0
 94 390 129 408 145 446 c 0
 149 455 157 471 169 471 c 0
 179 471 183 464 183 455 c 0
 183 444 177 423 173 409 c 0
 170 398 173 395 187 395 c 0
 189 395 295 401 299 401 c 0
 315 401 319 387 319 378 c 0
 319 351 310 344 286 344 c 0xd0
EndSplineSet
Validated: 1
EndChar

StartChar: u
Encoding: 117 117 20
Width: 513
VWidth: 0
Flags: W
HStem: -18 21G<352 360> -11 57<187.198 285.453> 363 38<24.029 87.4389 256.254 341.911>
VStem: 88 73<73.9586 365.781> 345 73<68.0911 359.459>
LayerCount: 3
Fore
SplineSet
422 371 m 0x78
 422 326 419 244 419 194 c 0
 419 144 418 99 418 71 c 0
 418 45 433 45 449 45 c 2
 483 45 l 2
 496 45 498 39 498 29 c 0
 498 10 462 12 396 -7 c 0
 386 -10 364 -18 356 -18 c 0xb8
 348 -18 347 -9 347 -1 c 2
 347 36 l 2
 347 50 338 43 332 39 c 0
 282 8 256 -11 205 -11 c 0
 101 -11 88 74 88 154 c 2
 88 337 l 2
 88 367 66 367 45 367 c 0
 34 367 24 371 24 383 c 0
 24 392 33 400 47 400 c 0
 76 401 115 402 140 402 c 0
 162 402 165 394 165 382 c 0
 165 371 161 244 161 178 c 0
 161 111 168 46 245 46 c 0
 280 46 345 68 345 93 c 2
 346 323 l 2
 346 363 319 361 293 363 c 0
 270 365 256 370 256 385 c 0
 256 397 265 401 276 401 c 2
 356 401 l 2
 371 401 385 403 396 403 c 0
 414 403 422 402 422 371 c 0x78
EndSplineSet
Validated: 1
Layer: 2
SplineSet
427 371 m 4x62
 427 326 419 244 419 194 c 4
 419 144 418 99 418 71 c 4
 418 45 433 45 449 45 c 6
 483 45 l 6
 496 45 498 39 498 29 c 4
 498 10 462 12 396 -7 c 4
 386 -10 364 -18 354 -18 c 4xa4
 346 -18 345 -9 345 -1 c 6
 345 36 l 6
 345 50 338 43 332 39 c 4
 282 8 256 -11 208 -11 c 4
 96 -11 86 70 86 154 c 4x74
 86 215 88 276 88 337 c 4
 88 367 66 367 45 367 c 4
 34 367 24 371 24 383 c 4
 24 392 33 400 47 400 c 4
 76 401 120 402 145 402 c 4
 167 402 170 394 170 382 c 4x68
 170 371 161 244 161 178 c 4
 161 111 168 46 245 46 c 4
 280 46 343 68 343 93 c 6x74
 344 323 l 6
 344 363 319 361 293 363 c 4
 270 365 256 370 256 385 c 4
 256 397 265 401 276 401 c 6
 356 401 l 6
 371 401 390 403 401 403 c 4
 419 403 427 402 427 371 c 4x62
EndSplineSet
EndChar

StartChar: v
Encoding: 118 118 21
Width: 511
VWidth: 0
Flags: W
HStem: -17 21G<251.5 260> 364 34<175.067 239.993 417.684 485.697>
LayerCount: 3
Fore
SplineSet
240 381 m 0
 240 371 230 366 216 364 c 0
 198 361 175 362 175 346 c 0
 175 329 218 228 266 121 c 0
 274 104 273 101 281 119 c 0
 313 194 355 322 355 343 c 0
 355 372 292 350 292 378 c 0
 292 395 310 398 328 398 c 0
 351 398 375 397 398 397 c 0
 422 397 446 400 469 400 c 0
 479 400 486 393 486 384 c 0
 486 369 469 365 453 363 c 0
 422 359 412 350 393 297 c 0
 363 212 317 104 282 20 c 0
 270 -10 265 -17 255 -17 c 0
 248 -17 240 -7 233 10 c 0
 224 31 210 61 201 82 c 2
 99 310 l 2
 83 345 75 352 60 359 c 0
 41 368 18 367 18 386 c 0
 18 394 25 399 34 399 c 0
 56 399 87 397 127 397 c 0
 151 397 194 398 218 398 c 0
 230 398 240 393 240 381 c 0
EndSplineSet
Validated: 1
EndChar

StartChar: w
Encoding: 119 119 22
Width: 787
VWidth: 0
Flags: W
HStem: -14 21G<241.5 257 533 543> 364 34<177.63 246.494 304.628 363.191 584.619 643.917 704 771.488> 372 31<22.3567 79.8827>
VStem: 364 92<300.851 365.786> 644 128<330.5 389.5>
LayerCount: 3
Fore
SplineSet
524 384 m 0xd8
 524 354 456 380 456 349 c 0
 456 338 515 196 552 114 c 0
 558 100 558 99 565 114 c 0
 594 180 644 316 644 345 c 0
 644 354 640 365 612 370 c 0
 597 373 584 375 584 384 c 0
 584 394 595 399 605 399 c 0
 631 399 656 397 683 397 c 0
 707 397 730 398 753 398 c 0
 763 398 772 394 772 385 c 0
 772 371 758 367 738 364 c 0xd8
 707 359 699 348 676 292 c 0
 638 200 606 112 565 27 c 0
 551 -2 548 -14 538 -14 c 0
 528 -14 518 -1 506 28 c 0
 479 97 425 216 396 290 c 0
 391 301 390 300 386 291 c 2
 285 35 l 2
 270 -2 264 -14 250 -14 c 0
 233 -14 226 7 215 36 c 0
 209 51 199 73 194 86 c 2
 93 328 l 2
 78 363 76 367 62 372 c 0
 42 379 22 376 22 390 c 0
 22 398 28 403 37 403 c 0xb8
 59 403 113 400 153 400 c 2
 224 400 l 2
 233 400 247 397 247 385 c 0
 247 372 236 370 219 368 c 0
 195 365 177 356 177 343 c 0
 177 319 217 215 265 107 c 0
 270 95 273 96 279 108 c 0
 302 159 364 332 364 341 c 0
 364 358 346 368 328 371 c 0
 315 373 304 374 304 385 c 0
 304 396 313 399 320 399 c 0
 356 399 372 396 407 396 c 0
 435 396 477 398 501 398 c 0
 515 398 524 392 524 384 c 0xd8
EndSplineSet
Validated: 1
EndChar

StartChar: x
Encoding: 120 120 23
Width: 527
VWidth: 0
Flags: W
HStem: 0 31<29.7546 112.361 421.325 478.958> 369 33<40.0262 109.751 415.363 487.155>
VStem: 228 72<182.188 224.656>
DStem2: 134 68 187 70 0.620177 0.784462<7.31079 137.203 235.188 245.319> 268 259 139 318 0.583075 -0.812418<-115.661 7.64295 79.2394 206.312>
LayerCount: 3
Fore
SplineSet
214 215 m 2
 139 318 l 2
 120 344 107 363 73 369 c 0
 43 374 40 380 40 386 c 0
 40 397 49 402 61 402 c 0
 83 402 95 401 135 401 c 0
 159 401 202 402 226 402 c 0
 238 402 248 395 248 389 c 0
 248 367 207 379 207 358 c 0
 207 350 233 307 268 259 c 0
 276 249 277 248 285 259 c 0
 339 328 349 351 349 358 c 0
 349 375 311 368 311 392 c 0
 311 400 318 404 336 404 c 0
 359 404 380 402 403 402 c 0
 427 402 443 404 466 404 c 0
 476 404 488 404 488 391 c 0
 488 377 476 373 461 370 c 0
 431 365 430 365 408 347 c 0
 376 320 346 283 312 240 c 0
 303 229 300 222 300 216 c 0
 300 207 307 200 314 191 c 2
 418 50 l 2
 433 30 437 34 452 29 c 0
 470 23 480 24 480 9 c 0
 480 -2 465 -4 456 -4 c 0
 434 -4 406 0 366 0 c 2
 302 0 l 2
 290 0 280 2 280 12 c 0
 280 38 323 19 323 44 c 0
 323 54 284 114 261 146 c 0
 253 158 253 156 243 145 c 0
 220 118 203 95 187 70 c 0
 176 53 177 50 177 43 c 0
 177 20 228 40 228 11 c 0
 228 0 208 -2 190 -2 c 0
 167 -2 145 0 122 0 c 0
 98 0 71 -2 48 -2 c 0
 33 -2 29 5 29 9 c 0
 29 27 42 30 62 31 c 0
 103 34 112 43 134 68 c 0
 177 116 185 123 218 166 c 0
 224 173 228 179 228 186 c 0
 228 193 224 201 214 215 c 2
EndSplineSet
Validated: 1
EndChar

StartChar: y
Encoding: 121 121 24
Width: 534
VWidth: 0
Flags: W
HStem: -247 83<53.6471 140.112> 370 33<31.3751 96.9824 429.978 504.787>
DStem2: 148 -151 198 -137 0.421509 0.906824<-23.2651 174.798 314.673 505.153>
LayerCount: 3
Fore
SplineSet
242 386 m 0
 242 360 190 385 190 352 c 0
 190 331 226 223 269 125 c 0
 274 114 278 113 284 125 c 0
 316 191 374 326 374 359 c 0
 374 381 312 361 312 388 c 0
 312 400 325 403 332 403 c 0
 346 403 396 400 412 400 c 0
 440 400 459 402 483 402 c 0
 494 402 505 396 505 390 c 0
 505 377 499 372 489 370 c 0
 454 364 436 374 416 332 c 2
 395 288 l 1
 331 140 279 12 198 -137 c 0
 176 -177 146 -247 93 -247 c 0
 61 -247 47 -221 47 -202 c 0
 47 -182 65 -164 92 -164 c 0
 108 -164 113 -167 124 -167 c 0
 138 -167 142 -160 148 -151 c 0
 186 -91 230 -2 230 4 c 0
 230 7 202 73 195 92 c 2
 108 330 l 2
 95 366 86 370 62 372 c 0
 43 374 31 376 31 390 c 0
 31 398 42 401 49 401 c 0
 71 401 113 400 153 400 c 0
 177 400 200 401 224 401 c 0
 233 401 242 398 242 386 c 0
EndSplineSet
Validated: 1
EndChar

StartChar: z
Encoding: 122 122 25
Width: 421
VWidth: 0
Flags: W
HStem: 0 45<164.25 320.56> 0 37<149.377 267.75> 360 42<112.794 250.094> 390 20G<136 371.5>
DStem2: 36 27 143 49 0.565877 0.82449<78.9966 393.7>
LayerCount: 3
Fore
SplineSet
360 0 m 2x40
 61 0 l 2
 34 0 32 6 32 16 c 0
 32 19 33 23 36 27 c 2
 257 349 l 2
 263 358 262 365 250 364 c 2
 171 360 l 2
 103 357 90 351 70 300 c 0
 67 293 59 292 54 292 c 0
 42 292 39 299 39 308 c 0
 39 332 69 403 80 443 c 0
 84 456 92 464 98 464 c 0
 108 464 114 461 114 451 c 0
 114 440 113 428 112 417 c 0
 112 409 117 402 136 402 c 2x60
 364 410 l 2
 379 410 384 404 384 397 c 0
 384 388 375 374 368 366 c 0
 341 332 183 106 143 49 c 0
 137 40 139 37 147 37 c 2x50
 285 45 l 2x80
 317 47 318 59 331 93 c 0
 338.567729379 111.378771349 344 146 364 146 c 0
 370 146 378 139 378 127 c 0
 378 105 372 73 372 65 c 2
 372 24 l 2
 372 4 368 0 360 0 c 2x40
EndSplineSet
Validated: 1
EndChar

StartChar: E
Encoding: 69 69 30
Width: 621
VWidth: 0
Flags: W
HStem: -4 41<10.1574 107.676> 0 45<206.093 511.704> 321 41<211.078 432.722> 614 43<218.799 491.027> 627 40<34.0233 127.131>
VStem: 112 94<45.034 320.042> 129 81<364.9 610.896> 439 38<209.488 314.781 363.886 451.49> 521 32<506.036 574.038> 550 39<88.4585 153.99>
LayerCount: 3
Fore
SplineSet
537 657 m 0x33
 553 657 553 642 553 630 c 2
 553 519 l 2
 553 509 545 506 538 506 c 0
 529 506 522 511 521 515 c 0
 502 609 495 608 376 614 c 0
 348 615 304 617 268 617 c 0
 211 617 217 602 214 516 c 0
 213 482 210 447 210 405 c 0x3380
 210 366 214 362 243 362 c 2
 414 362 l 2
 429 362 437 389 442 419 c 0
 445 438 449 453 466 453 c 0
 477 453 480 445 480 433 c 0
 480 419 474 381 474 344 c 0
 474 262 477 241 477 228 c 0
 477 220 470 209 462 209 c 0
 439 209 439 247 439 269 c 0
 439 298 435 321 386 321 c 2
 245 321 l 2
 212 321 208 321 208 290 c 0
 207 195 206 110 206 69 c 0
 206 55 214 45 227 45 c 2
 412 45 l 2
 489 45 520 54 550 124 c 0
 555 135 564 156 575 156 c 0
 586 156 589 141 589 127 c 0x7540
 589 99 580 73 576 54 c 0
 571 31 570 16 569 7 c 0
 568 -2 558 -6 553 -6 c 0
 419 -4 293 0 158 0 c 0x7180
 109 0 51 -4 27 -4 c 0
 16 -4 10 3 10 12 c 0
 10 34 18 37 32 37 c 0
 42 37 56 36 67 36 c 0
 91 36 106 37 112 74 c 0xa580
 120 127 129 563 129 596 c 0
 129 630 87 625 54 627 c 0
 42 628 34 635 34 646 c 0
 34 654 36 667 55 667 c 0xab
 77 667 106 660 176 660 c 0
 272 660 439 657 537 657 c 0x33
EndSplineSet
Validated: 1
EndChar

StartChar: F
Encoding: 70 70 31
Width: 577
VWidth: 0
Flags: WO
HStem: -8 27G<34.5 53 268.5 281> 311 38<202.388 415.626> 612 43<203.876 487.562> 620 32<26.008 113.358>
VStem: 120 82<40.2974 310.796 349.006 606.659> 435 28<224.236 298.838 373.836 442.99> 514 26<508.077 575.61>
LayerCount: 3
Fore
SplineSet
118 61 m 0xee
 119 147 120 252 120 346 c 0
 120 471 119 566 119 585 c 0
 119 606 103 620 83 620 c 2
 53 620 l 2
 37 620 26 622 26 636 c 0
 26 644 29 652 48 652 c 2
 158 652 l 2xde
 194 652 293 655 332 655 c 2
 512 655 l 2
 528 655 538 643 538 631 c 2
 540 524 l 2
 540 514 535 508 528 508 c 0
 519 508 515 520 514 524 c 0
 506 583 496 589 472 597 c 0
 436 609 370 612 351 612 c 0
 321 612 278 612 248 610 c 0
 209 607 204 603 203 582 c 0
 201 517 201 451 201 388 c 0
 201 357 202 349 225 349 c 2
 363 352 l 2
 427 353 429 387 432 410 c 0
 434 429 434 443 449 443 c 0
 458 443 461 430 461 418 c 0
 461 404 457 371 457 334 c 0
 457 300 463 255 463 242 c 0
 463 234 460 224 452 224 c 0
 436 224 438 237 435 259 c 0
 430 300 420 311 371 311 c 2
 239 311 l 2
 206 311 202 311 202 280 c 2
 202 240 l 2
 202 161 204 100 204 65 c 0
 204 15 302 53 302 16 c 0
 302 2 290 -2 272 -2 c 0
 265 -2 219 0 168 0 c 0
 116 0 66 -8 40 -8 c 0
 29 -8 22 -1 22 8 c 0
 22 40 117 14 118 61 c 0xee
EndSplineSet
Validated: 1
EndChar

StartChar: H
Encoding: 72 72 33
Width: 765
VWidth: 0
Flags: W
HStem: -3 32<35.0066 105.548 216.115 301.934 446.321 538.07> 303 50<208.068 548.093> 615 37<46.3056 122.172 215.479 303.58 471.436 551.736 638.091 708.852>
VStem: 118 89<38.7316 302.931 353.016 577.157> 125 89<377.83 613.237> 550 87<43.6152 302.896 353.199 616.406>
LayerCount: 3
Fore
SplineSet
207 65 m 0xf4
 207 38 234 36 259 34 c 0
 281 32 302 31 302 15 c 0
 302 -1 292 -5 274 -5 c 0
 267 -5 219 0 168 0 c 0
 116 0 88 -3 62 -3 c 0
 44 -3 35 3 35 13 c 0
 35 19 41 28 52 29 c 0
 76 31 118 34 118 76 c 0xf4
 118 105 125 546 125 579 c 0
 125 608 109 615 88 615 c 2
 66 615 l 2
 54 615 46 617 46 630 c 0
 46 647 63 652 85 652 c 0
 107 652 122 651 172 651 c 0
 232 651 257 655 272 655 c 0
 280 655 304 653 304 638 c 0
 304 619 288 617 270 617 c 2
 257 617 l 2
 234 617 216 616 214 588 c 0xec
 208 519 207 456 207 374 c 0
 207 354 210 353 232 353 c 2
 519 353 l 2
 547 353 548 356 549 392 c 0
 551 487 552 579 552 592 c 0
 552 618 529 616 507 619 c 0
 487 622 470 626 470 639 c 0
 470 654 483 655 505 655 c 0
 529 655 565 652 594 652 c 0
 607 652 650 653 673 653 c 0
 692 653 709 649 709 636 c 0
 709 622 701 621 681 619 c 0
 656 616 637 623 637 582 c 2
 637 506 l 2
 637 362 634 149 634 73 c 0
 634 24 737 44 737 13 c 0
 737 0 726 -2 708 -2 c 0
 701 -2 649 0 598 0 c 0
 546 0 489 -6 463 -6 c 0
 452 -6 446 1 446 10 c 0
 446 32 474 27 501 30 c 0
 524 32 546 39 547 73 c 0
 548 81 550 186 550 271 c 0
 550 302 550 303 518 303 c 2
 237 303 l 2
 209 303 208 302 208 275 c 0
 208 190 207 101 207 65 c 0xf4
EndSplineSet
Validated: 1
EndChar

StartChar: I
Encoding: 73 73 34
Width: 327
VWidth: 0
Flags: W
HStem: -6 25G<27.5 46 268.5 281>
VStem: 117 89<42.8999 325> 126 84<336.108 610.575>
LayerCount: 3
Fore
SplineSet
206 69 m 4xc0
 206 19 314 47 314 14 c 4
 314 -2 290 -2 272 -2 c 4
 265 -2 219 0 168 0 c 4
 116 0 59 -6 33 -6 c 4
 22 -6 16 1 16 10 c 4
 16 54 117 -4 117 74 c 4xc0
 117 103 126 546 126 579 c 0
 126 647 21 601 21 639 c 0
 21 656 31 659 53 659 c 0
 75 659 122 654 172 654 c 0
 182 654 257 656 272 656 c 0
 295 656 312 653 312 638 c 0
 312 604 258 630 228 609 c 0
 212 597 210 563 210 516 c 0xa0
 209 386 206 142 206 69 c 4xc0
EndSplineSet
Validated: 1
EndChar

StartChar: J
Encoding: 74 74 35
Width: 327
VWidth: 0
Flags: W
HStem: -242 38<-15.9164 74.2049> 616 48<210.686 293.996>
VStem: -100 80<-199.28 -140.406> 117 93<327.768 611.401> 125 91<-95.4663 346.105>
LayerCount: 3
Fore
SplineSet
-29 -64 m 0xe8
 -3 -64 17 -83 17 -112 c 0
 17 -142 -20 -144 -20 -170 c 0
 -20 -190 -3 -204 25 -204 c 0
 107 -204 123 -94 124 -20 c 0
 125 16 125 56 125 96 c 0xe8
 125 300 118 538 117 581 c 0
 116 645 4 593 4 636 c 0
 4 648 15 659 37 659 c 0
 59 659 100 660 150 660 c 0
 160 660 257 664 272 664 c 0
 286 664 296 657 296 648 c 0
 296 614 251 634 222 616 c 0
 212 610 210 606 210 571 c 0xf0
 210 427 216 188 216 60 c 0
 216 -56 191 -129 153 -176 c 0
 116 -223 60 -242 16 -242 c 0
 -48 -242 -100 -202 -100 -145 c 0
 -100 -104 -73 -64 -29 -64 c 0xe8
EndSplineSet
Validated: 1
EndChar

StartChar: L
Encoding: 76 76 37
Width: 583
VWidth: 0
Flags: W
HStem: 0 43<213.396 443.274> 620 31<19.562 123.675> 629 31<228.177 333.586>
VStem: 126 83<47.3108 616.735>
LayerCount: 3
Fore
SplineSet
213 70 m 0xb0
 213 61 216 43 234 43 c 0
 271 43 425 47 467 61 c 0
 532 82 541 175 559 175 c 0
 568 175 572 164 572 149 c 0
 572 133 569 112 567 92 c 0
 564 57 564 25 564 22 c 0
 564 6 548 -2 530 -2 c 0
 523 -2 219 0 168 0 c 0
 116 0 52 -5 26 -5 c 0
 15 -5 4 0 4 10 c 0
 4 42 120 18 120 74 c 0
 120 103 126 546 126 579 c 0
 126 618 124 617 63 620 c 0
 41 621 19 624 19 639 c 0
 19 652 26 653 31 653 c 0
 56 653 57 651 138 651 c 0xd0
 244 651 280 660 311 660 c 0
 322 660 334 659 334 650 c 0
 334 632 326 631 306 629 c 0
 225 620 210 633 210 531 c 0
 210 480 209 424 209 358 c 0
 209 241 210 117 213 70 c 0xb0
EndSplineSet
Validated: 1
EndChar

StartChar: N
Encoding: 78 78 39
Width: 758
VWidth: 0
Flags: W
HStem: -3 37<16.0139 112.222 163.467 276.849> 619 40<7.09814 101.58> 630 34<461.084 572.923 637.566 717.951>
VStem: 107 41<348.284 506.991> 116 45<38.2014 265.977> 579 49<359.8 620.713> 592 41<131.008 383.023>
DStem2: 171 628 176 482 0.644871 -0.764291<79.7102 647.831>
LayerCount: 3
Fore
SplineSet
171 628 m 2xd0
 485 253 l 2
 514 219 580 131 587 131 c 0
 592 131 592 142 592 179 c 0xd2
 592 215 585 473 579 574 c 0
 577 605 581 615 556 624 c 0
 546 628 532 629 518 630 c 0
 490 632 461 633 461 648 c 0
 461 658 464 667 485 667 c 0
 506 667 504 664 591 664 c 0
 642 664 669 666 692 666 c 0
 701 666 718 664 718 648 c 0
 718 632 702 631 683 630 c 0
 666 629 649 631 637 621 c 0
 630 615 629 601 629 573 c 0
 629 546 628 454 628 427 c 0xa4
 628 266 633 153 633 -3 c 0
 633 -27 624 -27 620 -27 c 0
 600 -27 603 -24 500 98 c 2
 176 482 l 2
 163 497 155 507 151 507 c 0
 148 507 148 494 148 482 c 0xb2
 148 378 158 129 161 62 c 0
 162 34 200 35 221 34 c 0
 256 32 277 33 277 13 c 0
 277 -2 264 -3 245 -3 c 0
 219 -3 179 0 140 0 c 0
 108 0 58 -2 36 -2 c 0
 27 -2 16 0 16 15 c 0
 16 33 35 33 56 33 c 0
 112 33 116 44 116 85 c 0xa8
 116 217 109 457 107 548 c 0
 106 610 102 611 61 619 c 0
 41 623 7 620 7 640 c 0
 7 657 16 659 26 659 c 2
 64 659 l 2
 82 659 101 661 119 661 c 0
 142 661 149 655 171 628 c 2xd0
EndSplineSet
Validated: 1
EndChar

StartChar: O
Encoding: 79 79 40
Width: 786
VWidth: 0
Flags: W
HStem: -19 40<307.376 481.249> 622 44<274.636 459.692>
VStem: 36 106<202.247 450.859> 621 107<188.728 433.798>
LayerCount: 3
Fore
SplineSet
728 322 m 0
 728 94 570 -19 374 -19 c 0
 194 -19 36 86 36 326 c 0
 36 548 204 666 380 666 c 0
 576 666 728 542 728 322 c 0
367 622 m 0
 217.726469659 622 142 481.448263612 142 333 c 0
 142 132 270 21 392 21 c 0
 523 21 621 126 621 298 c 0
 621 496 506 622 367 622 c 0
EndSplineSet
Validated: 1
EndChar

StartChar: P
Encoding: 80 80 41
Width: 557
VWidth: 0
Flags: W
LayerCount: 3
Fore
SplineSet
214 558 m 0xec
 213 540 210 442 210 375 c 0
 210 341 212 330 223 324 c 0
 239 316 279 313 298 313 c 0
 387 313 437 367 437 463 c 0
 437 554 370 618 268 618 c 0
 208 618 216 612 214 558 c 0xec
212 277 m 2xf4
 212 66 l 2
 212 40 235 41 260 37 c 0
 290 33 324 32 324 14 c 0
 324 -2 317 -7 299 -7 c 0
 292 -7 219 0 168 0 c 0
 116 0 69 -6 43 -6 c 0
 29 -6 22 -3 22 6 c 0
 22 33 50 29 78 33 c 0
 97 35 113 41 113 60 c 0xf4
 113 89 124 560 124 593 c 0xec
 124 636 26 602 26 640 c 0
 26 657 38 661 53 661 c 0
 75 661 122 656 172 656 c 0
 233 656 265 659 327 659 c 0
 402 659 530 638 530 484 c 0
 530 387 476 264 330 264 c 0
 264 264 217 303 216 303 c 0
 214 303 212 293 212 277 c 2xf4
EndSplineSet
Validated: 1
EndChar

StartChar: Q
Encoding: 81 81 42
Width: 767
VWidth: 0
Flags: W
HStem: -245 58<647.481 753.002> 622 41<279.119 463.164>
VStem: 42 93<201.561 441.843> 628 94<187.703 434.767>
LayerCount: 3
Fore
SplineSet
367 622 m 0
 218 622 135 483 135 335 c 0
 135 134 262 12 384 12 c 0
 515 12 628 124 628 296 c 0
 628 494 519 622 367 622 c 0
380 663 m 0
 579 663 722 534 722 321 c 0
 722 -8 415 -5 415 -14 c 0
 415 -20 628 -187 721 -187 c 0
 767 -187 774 -175 784 -175 c 0
 793 -175 797 -190 797 -194 c 0
 797 -202 784 -210 774 -214 c 0
 744 -227 706 -245 668 -245 c 0
 528 -245 454 -130 314 -30 c 0
 302 -22 292 -11 276 -6 c 0
 142 33 42 146 42 310 c 0
 42 530 193 663 380 663 c 0
EndSplineSet
Validated: 1
EndChar

StartChar: R
Encoding: 82 82 43
Width: 679
VWidth: 0
Flags: W
HStem: 0 31<19.4814 110.113 555.26 654.083> 322 25<209.393 278.117> 618 36<34.4535 122.307 210.176 314.935>
VStem: 113 95<40.0172 317.957> 125 83<317.957 322 347.231 615.197> 398 92<408.098 551.5>
LayerCount: 3
Fore
SplineSet
208 292 m 2xf4
 208 66 l 2
 208 40 228 40 258 34 c 0
 288 28 316 24 316 11 c 0
 316 -5 308 -7 296 -7 c 0
 289 -7 219 0 168 0 c 0
 116 0 64 -6 38 -6 c 0
 24 -6 17 -3 17 6 c 0
 17 33 60 27 88 31 c 0
 107 33 110 41 113 60 c 0xf4
 116 85 125 447 125 561 c 0xec
 125 578 124 589 124 593 c 0
 122 615 99 618 76 618 c 2
 63 618 l 2
 47 618 34 619 34 632 c 0
 34 648 50 650 66 652 c 0
 75 653 86 654 98 654 c 2
 164 654 l 2
 189 654 217 656 246 656 c 0
 371 656 490 626 490 496 c 0
 490 413 450 368 387 344 c 0
 366 336 356 334 356 328 c 0
 356 324 361 318 370 306 c 0
 422 243 464 164 507 92 c 0
 536 45 553 44 628 29 c 0
 648 25 655 22 655 9 c 0
 655 -2 645 -3 631 -3 c 0
 585 -3 539 -2 493 -2 c 0
 444 -2 438 21 427 41 c 2
 292 289 l 2
 284 303 275 322 252 322 c 2
 229 322 l 2
 211 322 208 315 208 292 c 2xf4
209 590 m 0
 209 572 207 442 207 375 c 0
 207 350 207 347 242 347 c 0
 331 347 398 383 398 479 c 0
 398 568 328 616 230 616 c 0
 211 616 209 598 209 590 c 0
EndSplineSet
Validated: 1
EndChar

StartChar: S
Encoding: 83 83 44
Width: 452
VWidth: 0
Flags: W
HStem: -21 45<135.443 311.774> 626 45<145.83 283.576>
VStem: 30 31<102.875 189.985> 39 59<459.981 577.648> 330 37<498.163 576.219> 367 55<79.0672 202.615>
LayerCount: 3
Back
SplineSet
98 516 m 4xd8
 98 455 153 431 222 393 c 4
 311 344 422 301 422 174 c 4
 422 78 364 -21 216 -21 c 4
 159 -21 89 -9 59 3 c 4
 34 13 28 15 28 25 c 4
 28 51 30 74 30 96 c 6
 30 160 l 6
 30 172 34 190 46 190 c 4
 55 190 60 185 61 176 c 4xe4
 64 133 68 110 89 83 c 4
 118 46 172 24 232 24 c 4
 325 24 367 86 367 142 c 4
 367 297 39 269 39 500 c 4
 39 584 114 671 229 671 c 4
 278 671 320 661 356 646 c 4
 365 642 367 633 367 625 c 4xd4
 367 614 366 605 366 593 c 4
 366 568 367 539 367 522 c 4
 367 504 364 498 350 498 c 4
 338 498 333 519 330 533 c 4
 314 601 262 626 213 626 c 4
 157 626 98 586 98 516 c 4xd8
EndSplineSet
Fore
SplineSet
98 514 m 0xd8
 98 381 422 385 422 174 c 0
 422 78 364 -21 216 -21 c 0
 159 -21 89 -9 59 3 c 0
 34 13 28 15 28 25 c 0
 28 51 30 74 30 96 c 2
 30 160 l 2
 30 172 34 190 46 190 c 0
 55 190 60 185 61 176 c 0xe4
 64 133 68 110 89 83 c 0
 118 46 172 24 232 24 c 0
 325 24 367 86 367 142 c 0
 367 297 39 269 39 500 c 0
 39 584 114 671 229 671 c 0
 278 671 320 661 356 646 c 0
 365 642 367 633 367 625 c 0xd4
 367 614 366 605 366 593 c 0
 366 568 367 539 367 522 c 0
 367 504 364 498 350 498 c 0
 338 498 333 519 330 533 c 0
 314 601 262 626 213 626 c 0
 157 626 98 585 98 514 c 0xd8
EndSplineSet
Validated: 1
EndChar

StartChar: T
Encoding: 84 84 45
Width: 633
VWidth: 0
Flags: W
HStem: -6 42<172.811 264.984 359.345 482.529> 604 52<93.8424 277.858 362.782 546.991>
VStem: 19 39<501.347 564.87> 270 88<42.8855 330.865> 278 83<287.283 603.09>
LayerCount: 3
Fore
SplineSet
358 69 m 0xf0
 358 41 370 44 406 40 c 0
 414 39 435 38 452 36 c 0
 473 34 483 31 483 19 c 0
 483 3 467 -2 449 -2 c 0
 442 -2 371 0 320 0 c 0
 268 0 211 -6 185 -6 c 0
 174 -6 172 1 172 10 c 0
 172 30 204 31 228 36 c 0
 251 41 266 40 270 78 c 0xf0
 274 121 278 397 278 529 c 2
 278 570 l 2
 278 588 278 604 267 604 c 2
 225 604 l 2
 186 604 137 601 107 590 c 0
 84 581 68 555 58 534 c 0
 49 516 44 500 34 500 c 0
 19 500 19 509 19 516 c 0
 19 549 31 587 45 640 c 0
 47 647 53 686 71 686 c 0
 92 686 96 658 109 658 c 0
 210 658 287 656 365 656 c 0
 498 656 484 653 552 653 c 0
 578 653 567 686 590 686 c 0
 607 686 609 663 609 637 c 0
 609 627 608 614 608 606 c 0
 608 577 614 539 614 527 c 0
 614 520 612 504 600 504 c 0
 570 504 582 562 547 583 c 0
 516 602 436 604 409 604 c 2
 393 604 l 2
 365 604 361 590 361 558 c 0xe8
 361 546 362 420 362 404 c 0
 361 274 358 142 358 69 c 0xf0
EndSplineSet
Validated: 1
EndChar

StartChar: comma
Encoding: 44 44 53
Width: 306
VWidth: 0
Flags: W
HStem: -174 28<102.887 141.635> -9 80<113.625 185.535>
VStem: 190 54<-99.9459 -13.964>
LayerCount: 3
Fore
SplineSet
142 -9 m 0
 117 -9 104 3 104 22 c 0
 104 51 131 71 162 71 c 0
 205 71 244 30 244 -28 c 0
 244 -114 159 -174 112 -174 c 0
 106 -174 102 -170 102 -164 c 0
 102 -154 115 -151 124 -146 c 0
 157 -128 190 -87 190 -48 c 0
 190 -22 175 -9 142 -9 c 0
EndSplineSet
Validated: 1
EndChar

StartChar: period
Encoding: 46 46 54
Width: 298
VWidth: 0
Flags: W
HStem: -17 92<114.347 191.653>
VStem: 107 92<-9.65255 67.6526>
LayerCount: 3
Fore
SplineSet
107 29 m 0
 107 54 128 75 153 75 c 0
 178 75 199 54 199 29 c 0
 199 4 178 -17 153 -17 c 0
 128 -17 107 4 107 29 c 0
EndSplineSet
Validated: 1
EndChar
